# xmcd CD database file
#
# Track frame offsets:
#	150
#	35125
#	58668
#	85464
#	115058
#	146451
#	174545
#	193837
#	225087
#	249112
#
# Disc length: 3599 seconds
#
# Revision: 0
# Processed by: cddbd v1.5.2PL0 Copyright (c) Steve Scherf et al.
# Submitted via: CDex 1.70beta2
#
DISCID=7f0e0d0a
DTITLE=The Game - Paco Charlin - The Game
DYEAR=2008
DGENRE=Jazz
TTITLE0=JA JU
TTITLE1=THE CHAIR OF JUDAS
TTITLE2=BRAIS
TTITLE3=SNAKE CAKE
TTITLE4=EMV
TTITLE5=MATCH 3
TTITLE6=NET JU
TTITLE7=THE GAME
TTITLE8=R.L.P.
TTITLE9=IGUREH
EXTD=YEAR: 2008
EXTT0=
EXTT1=
EXTT2=
EXTT3=
EXTT4=
EXTT5=
EXTT6=
EXTT7=
EXTT8=
EXTT9=
PLAYORDER=
